<svg width="19" height="24" viewBox="0 0 19 24" fill="none" xmlns="http://www.w3.org/2000/svg">
<path id="Vector" d="M9.5 0C8.24022 0 7.03204 0.505713 6.14124 1.40589C5.25044 2.30606 4.75 3.52696 4.75 4.8C4.75 6.07304 5.25044 7.29394 6.14124 8.19411C7.03204 9.09429 8.24022 9.6 9.5 9.6C10.7598 9.6 11.968 9.09429 12.8588 8.19411C13.7496 7.29394 14.25 6.07304 14.25 4.8C14.25 3.52696 13.7496 2.30606 12.8588 1.40589C11.968 0.505713 10.7598 0 9.5 0ZM15.4375 12H3.5625C2.61767 12 1.71153 12.3793 1.04343 13.0544C0.375334 13.7295 0 14.6452 0 15.6C0 18.2784 1.09012 20.424 2.8785 21.876C4.63837 23.304 6.99913 24 9.5 24C12.0009 24 14.3616 23.304 16.1215 21.876C17.9075 20.424 19 18.2784 19 15.6C19 14.6452 18.6247 13.7295 17.9566 13.0544C17.2885 12.3793 16.3823 12 15.4375 12Z" fill="white"/>
</svg>
