<svg width="29" height="29" viewBox="0 0 29 29" fill="none" xmlns="http://www.w3.org/2000/svg">
<path d="M14.5 0C18.3456 0 22.0338 1.52767 24.753 4.24695C27.4723 6.96623 29 10.6544 29 14.5C29 18.3456 27.4723 22.0338 24.753 24.753C22.0338 27.4723 18.3456 29 14.5 29C10.6544 29 6.96623 27.4723 4.24695 24.753C1.52767 22.0338 0 18.3456 0 14.5C0 10.6544 1.52767 6.96623 4.24695 4.24695C6.96623 1.52767 10.6544 0 14.5 0ZM14.5 26.9286C17.7963 26.9286 20.9575 25.6191 23.2883 23.2883C25.6191 20.9575 26.9286 17.7963 26.9286 14.5C26.9286 11.2037 25.6191 8.04248 23.2883 5.71167C20.9575 3.38086 17.7963 2.07143 14.5 2.07143C11.2037 2.07143 8.04248 3.38086 5.71167 5.71167C3.38086 8.04248 2.07143 11.2037 2.07143 14.5C2.07143 17.7963 3.38086 20.9575 5.71167 23.2883C8.04248 25.6191 11.2037 26.9286 14.5 26.9286ZM16.0536 21.2321C16.0536 21.6442 15.8899 22.0393 15.5985 22.3307C15.3072 22.622 14.912 22.7857 14.5 22.7857C14.088 22.7857 13.6928 22.622 13.4015 22.3307C13.1101 22.0393 12.9464 21.6442 12.9464 21.2321C12.9464 20.8201 13.1101 20.425 13.4015 20.1336C13.6928 19.8423 14.088 19.6786 14.5 19.6786C14.912 19.6786 15.3072 19.8423 15.5985 20.1336C15.8899 20.425 16.0536 20.8201 16.0536 21.2321ZM14.5 6.21429C14.7747 6.21429 15.0381 6.32341 15.2324 6.51764C15.4266 6.71187 15.5357 6.97531 15.5357 7.25V16.5714C15.5357 16.8461 15.4266 17.1096 15.2324 17.3038C15.0381 17.498 14.7747 17.6071 14.5 17.6071C14.2253 17.6071 13.9619 17.498 13.7676 17.3038C13.5734 17.1096 13.4643 16.8461 13.4643 16.5714V7.25C13.4643 6.97531 13.5734 6.71187 13.7676 6.51764C13.9619 6.32341 14.2253 6.21429 14.5 6.21429Z" fill="black"/>
</svg>
