<svg width="17" height="16" viewBox="0 0 17 16" fill="none" xmlns="http://www.w3.org/2000/svg">
<path fill-rule="evenodd" clip-rule="evenodd" d="M0 6.04444C0 3.92889 1.12587e-07 2.87111 0.411778 2.06267C0.773961 1.35186 1.35186 0.77396 2.06267 0.411778C2.87111 -1.12587e-07 3.92889 0 6.04444 0H10.9556C13.0711 0 14.1289 -1.12587e-07 14.9373 0.411778C15.6481 0.77396 16.226 1.35186 16.5882 2.06267C17 2.87111 17 3.92889 17 6.04444V7.17778C17 9.29333 17 10.3511 16.5882 11.1596C16.226 11.8704 15.6481 12.4483 14.9373 12.8104C14.1289 13.2222 13.0711 13.2222 10.9556 13.2222H4.16878C3.91832 13.2223 3.67813 13.3218 3.50106 13.4989L1.61217 15.3878C1.01717 15.9828 0 15.5616 0 14.7201V6.04444ZM5.66667 3.77778C5.41618 3.77778 5.17596 3.87728 4.99884 4.0544C4.82173 4.23152 4.72222 4.47174 4.72222 4.72222C4.72222 4.9727 4.82173 5.21293 4.99884 5.39004C5.17596 5.56716 5.41618 5.66667 5.66667 5.66667H11.3333C11.5838 5.66667 11.824 5.56716 12.0012 5.39004C12.1783 5.21293 12.2778 4.9727 12.2778 4.72222C12.2778 4.47174 12.1783 4.23152 12.0012 4.0544C11.824 3.87728 11.5838 3.77778 11.3333 3.77778H5.66667ZM5.66667 7.55556C5.41618 7.55556 5.17596 7.65506 4.99884 7.83218C4.82173 8.00929 4.72222 8.24952 4.72222 8.5C4.72222 8.75048 4.82173 8.9907 4.99884 9.16782C5.17596 9.34494 5.41618 9.44444 5.66667 9.44444H8.5C8.75048 9.44444 8.9907 9.34494 9.16782 9.16782C9.34494 8.9907 9.44444 8.75048 9.44444 8.5C9.44444 8.24952 9.34494 8.00929 9.16782 7.83218C8.9907 7.65506 8.75048 7.55556 8.5 7.55556H5.66667Z" fill="white"/>
</svg>
