<svg width="14" height="13" viewBox="0 0 14 13" fill="none" xmlns="http://www.w3.org/2000/svg">
<path fill-rule="evenodd" clip-rule="evenodd" d="M7.55454 0.344904C7.50566 0.241935 7.42745 0.15473 7.32918 0.0936065C7.23091 0.0324833 7.11667 0 7 0C6.88333 0 6.7691 0.0324833 6.67082 0.0936065C6.57255 0.15473 6.49434 0.241935 6.44546 0.344904L4.69267 4.03715L0.539114 4.51619C0.423229 4.52949 0.313689 4.57478 0.223459 4.6467C0.133229 4.71862 0.0660861 4.81416 0.0299766 4.92201C-0.00613295 5.02987 -0.00969732 5.14552 0.0197052 5.25528C0.0491078 5.36504 0.110246 5.46431 0.195885 5.54135L3.26784 8.30163L2.45252 12.2907C2.42988 12.4019 2.44046 12.5171 2.48303 12.6226C2.52559 12.7281 2.59835 12.8196 2.69271 12.8862C2.78707 12.9528 2.89909 12.9918 3.01551 12.9985C3.13193 13.0052 3.24789 12.9794 3.34968 12.9241L7 10.9378L10.6503 12.9241C10.7522 12.9796 10.8683 13.0056 10.9849 12.999C11.1015 12.9924 11.2137 12.9534 11.3082 12.8866C11.4027 12.8199 11.4755 12.7282 11.518 12.6225C11.5605 12.5168 11.571 12.4014 11.5481 12.2901L10.7328 8.30222L13.8041 5.54135C13.8898 5.46431 13.9509 5.36504 13.9803 5.25528C14.0097 5.14552 14.0061 5.02987 13.97 4.92201C13.9339 4.81416 13.8668 4.71862 13.7765 4.6467C13.6863 4.57478 13.5768 4.52949 13.4609 4.51619L9.30672 4.03655L7.55454 0.344904Z" fill="#586073"/>
</svg>
