<svg width="16" height="21" viewBox="0 0 16 21" fill="none" xmlns="http://www.w3.org/2000/svg">
<path d="M8 0C5.87904 0.00258035 3.84566 0.872603 2.34592 2.41922C0.846168 3.96584 0.00251067 6.06276 8.51118e-06 8.25C-0.00253177 10.0374 0.56363 11.7763 1.61164 13.2C1.61164 13.2 1.82982 13.4963 1.86546 13.539L8 21L14.1374 13.5353C14.1694 13.4955 14.3884 13.2 14.3884 13.2L14.3891 13.1978C15.4366 11.7747 16.0025 10.0366 16 8.25C15.9975 6.06276 15.1538 3.96584 13.6541 2.41922C12.1543 0.872603 10.121 0.00258035 8 0ZM8 11.25C7.42464 11.25 6.86219 11.0741 6.3838 10.7444C5.9054 10.4148 5.53254 9.94623 5.31235 9.39805C5.09217 8.84987 5.03456 8.24667 5.14681 7.66473C5.25906 7.08279 5.53612 6.54824 5.94296 6.12868C6.34981 5.70912 6.86816 5.4234 7.43247 5.30764C7.99677 5.19189 8.58169 5.2513 9.11326 5.47836C9.64483 5.70542 10.0992 6.08994 10.4188 6.58329C10.7385 7.07664 10.9091 7.65666 10.9091 8.25C10.9081 9.04535 10.6013 9.80783 10.056 10.3702C9.51062 10.9326 8.77124 11.249 8 11.25Z" fill="white"/>
</svg>
