<svg width="29" height="28" viewBox="0 0 29 28" fill="none" xmlns="http://www.w3.org/2000/svg">
<path id="Vector" d="M27 7.31422C27 5.87286 27 5.15149 26.6069 4.6084C26.2139 4.0653 25.5264 3.83728 24.1514 3.38124L22.5333 2.84505C20.6347 2.21489 19.6861 1.89981 18.7292 2.02833C17.7736 2.15547 16.9403 2.70686 15.275 3.81102L13.3556 5.08516C12.0556 5.94749 11.4056 6.37865 10.675 6.55001C10.4076 6.61353 10.1345 6.65057 9.85972 6.66056C9.10972 6.68544 8.36944 6.43945 6.8875 5.94749C4.94583 5.30351 3.975 4.98152 3.23611 5.30903C2.97427 5.42495 2.73928 5.59337 2.54583 5.80377C2 6.39938 2 7.41648 2 9.45345V15.071M27 12.6181V18.5466C27 20.5835 27 21.602 26.4542 22.1949C26.261 22.4062 26.026 22.5756 25.7639 22.6923C25.025 23.0185 24.0542 22.6965 22.1125 22.0525C20.6306 21.5605 19.8903 21.3146 19.1403 21.3408C18.8651 21.3498 18.5916 21.3859 18.3236 21.4486C17.5944 21.6213 16.9444 22.0525 15.6444 22.9135L13.725 24.1876C12.0583 25.2931 11.2264 25.8459 10.2708 25.9717C9.31528 26.1002 8.36528 25.7851 6.46667 25.1549L4.84861 24.6188C3.47361 24.1627 2.78611 23.9347 2.39306 23.3916C2.02083 22.8775 2.00139 22.2031 2 20.9097M18.6667 2.25358V7.09034M18.6667 20.9097V12.6181M10.3333 25.7464V20.9097M10.3333 7.09034V15.3819" stroke="white" stroke-width="2.7" stroke-linecap="round"/>
</svg>
