<svg width="15" height="15" viewBox="0 0 15 15" fill="none" xmlns="http://www.w3.org/2000/svg">
<path d="M7.50056 8.2411e-08C6.08101 -0.000210332 4.69056 0.402509 3.49082 1.16135C2.29109 1.92018 1.33134 3.00397 0.723159 4.28673C0.114974 5.56949 -0.116676 6.99853 0.0551368 8.40775C0.226949 9.81696 0.795167 11.1485 1.69374 12.2475L0.22085 13.7197C0.116 13.8246 0.0446008 13.9583 0.0156772 14.1037C-0.0132463 14.2492 0.00160489 14.4 0.0583532 14.537C0.115102 14.674 0.211199 14.7911 0.334497 14.8736C0.457795 14.956 0.602758 15 0.75106 15H7.50056C9.48953 15 11.397 14.2098 12.8035 12.8033C14.2099 11.3968 15 9.48912 15 7.5C15 5.51088 14.2099 3.60322 12.8035 2.1967C11.397 0.790176 9.48953 8.2411e-08 7.50056 8.2411e-08ZM4.50078 8.25C4.35246 8.25 4.20746 8.20601 4.08413 8.1236C3.96081 8.04119 3.86468 7.92406 3.80792 7.78701C3.75116 7.64997 3.73631 7.49917 3.76525 7.35368C3.79418 7.2082 3.86561 7.07456 3.97049 6.96967C4.07537 6.86478 4.209 6.79335 4.35447 6.76441C4.49995 6.73547 4.65074 6.75032 4.78777 6.80709C4.92481 6.86386 5.04193 6.95999 5.12434 7.08332C5.20674 7.20666 5.25073 7.35166 5.25073 7.5C5.25073 7.69891 5.17171 7.88968 5.03107 8.03033C4.89043 8.17098 4.69968 8.25 4.50078 8.25ZM7.50056 8.25C7.35223 8.25 7.20724 8.20601 7.08391 8.1236C6.96058 8.04119 6.86446 7.92406 6.8077 7.78701C6.75094 7.64997 6.73609 7.49917 6.76502 7.35368C6.79396 7.2082 6.86539 7.07456 6.97027 6.96967C7.07515 6.86478 7.20878 6.79335 7.35425 6.76441C7.49973 6.73547 7.65052 6.75032 7.78755 6.80709C7.92458 6.86386 8.04171 6.95999 8.12411 7.08332C8.20652 7.20666 8.2505 7.35166 8.2505 7.5C8.2505 7.69891 8.17149 7.88968 8.03085 8.03033C7.89021 8.17098 7.69946 8.25 7.50056 8.25ZM10.5003 8.25C10.352 8.25 10.207 8.20601 10.0837 8.1236C9.96036 8.04119 9.86424 7.92406 9.80748 7.78701C9.75071 7.64997 9.73586 7.49917 9.7648 7.35368C9.79374 7.2082 9.86516 7.07456 9.97004 6.96967C10.0749 6.86478 10.2086 6.79335 10.354 6.76441C10.4995 6.73547 10.6503 6.75032 10.7873 6.80709C10.9244 6.86386 11.0415 6.95999 11.1239 7.08332C11.2063 7.20666 11.2503 7.35166 11.2503 7.5C11.2503 7.69891 11.1713 7.88968 11.0306 8.03033C10.89 8.17098 10.6992 8.25 10.5003 8.25Z" fill="white"/>
</svg>
