<svg width="104" height="90" viewBox="0 0 104 90" fill="none" xmlns="http://www.w3.org/2000/svg">
<path d="M81.5 17L88.484 36.6392L107.309 27.6906L98.3608 46.516L118 53.5L98.3608 60.484L107.309 79.3094L88.484 70.3608L81.5 90L74.516 70.3608L55.6906 79.3094L64.6392 60.484L45 53.5L64.6392 46.516L55.6906 27.6906L74.516 36.6392L81.5 17Z" fill="#C9FF2F"/>
<path d="M12.0741 3.23525L16.8198 7.32597L22.7321 5.25185L22.4927 11.5128L27.8006 14.8419L22.7564 18.5584L23.4629 24.784L17.4122 23.1575L12.9854 27.5914L10.4845 21.8467L4.25787 21.1502L7.18999 15.6131L3.85228 10.3107L10.0095 9.1508L12.0741 3.23525Z" fill="#C9FF2F"/>
<path d="M22.2149 48.6653L24.8025 52.4775L29.2763 51.3759L26.4503 55.0149L28.8804 58.9293L24.5463 57.3661L21.5744 60.887L21.7217 56.2819L17.4549 54.5435L21.8801 53.2605L22.2149 48.6653Z" fill="#C9FF2F"/>
</svg>
