<svg width="11" height="6" viewBox="0 0 11 6" fill="none" xmlns="http://www.w3.org/2000/svg">
<path d="M0.130393 5.22639L5.16831 0.13935C5.2568 0.050004 5.37548 2.3497e-07 5.49905 2.40371e-07C5.62262 2.45773e-07 5.74131 0.050004 5.8298 0.13935L10.8696 5.22639C10.9109 5.26801 10.9437 5.31777 10.9661 5.37273C10.9885 5.4277 11 5.48675 11 5.54641C11 5.60607 10.9885 5.66513 10.9661 5.7201C10.9437 5.77506 10.9109 5.82482 10.8696 5.86644C10.785 5.95206 10.6714 6 10.5531 6C10.4348 6 10.3212 5.95206 10.2366 5.86644L5.49905 1.08274L0.762501 5.86644C0.677918 5.95177 0.564515 5.99952 0.446447 5.99952C0.328378 5.99952 0.214976 5.95177 0.130392 5.86644C0.0891268 5.82482 0.0563283 5.77506 0.0339331 5.7201C0.0115379 5.66513 -2.45049e-07 5.60607 -2.42441e-07 5.54641C-2.39834e-07 5.48675 0.0115379 5.4277 0.0339331 5.37273C0.0563284 5.31777 0.0891268 5.26801 0.130393 5.22639Z" fill="white"/>
</svg>
