<svg width="21" height="24" viewBox="0 0 21 24" fill="none" xmlns="http://www.w3.org/2000/svg">
<path id="Vector" d="M11.7023 0.504192C11.3773 0.180408 10.9471 0 10.5 0C10.0529 0 9.62267 0.180408 9.29775 0.504192L0.820751 8.94852C0.561194 9.2074 0.354519 9.51942 0.213389 9.86546C0.0722594 10.2115 -0.000352751 10.5843 1.28844e-06 10.9609V21.235C0.000465215 21.9685 0.277232 22.6718 0.769464 23.1903C1.2617 23.7088 1.92911 24 2.625 24H5.25C5.94619 24 6.61387 23.7085 7.10616 23.1896C7.59844 22.6707 7.875 21.967 7.875 21.2332V16.6218C7.875 16.3772 7.96719 16.1426 8.13128 15.9697C8.29538 15.7967 8.51794 15.6995 8.75 15.6995H12.25C12.4821 15.6995 12.7046 15.7967 12.8687 15.9697C13.0328 16.1426 13.125 16.3772 13.125 16.6218V21.2332C13.125 21.967 13.4016 22.6707 13.8938 23.1896C14.3861 23.7085 15.0538 24 15.75 24H18.375C19.0712 24 19.7389 23.7085 20.2312 23.1896C20.7234 22.6707 21 21.967 21 21.2332V10.9591C20.9999 10.5826 20.9269 10.2101 20.7855 9.86439C20.644 9.51868 20.4372 9.20703 20.1775 8.94852L11.7023 0.500503V0.504192Z" fill="white"/>
</svg>
