<svg width="33" height="33" viewBox="0 0 33 33" fill="none" xmlns="http://www.w3.org/2000/svg">
<path d="M20.5789 9.15789H20.5953M16.5 30.3684H5.89474C4.59657 30.3684 3.35158 29.8527 2.43364 28.9348C1.51569 28.0168 1 26.7718 1 25.4737V5.89474C1 4.59657 1.51569 3.35158 2.43364 2.43364C3.35158 1.51569 4.59657 1 5.89474 1H25.4737C26.7718 1 28.0168 1.51569 28.9348 2.43364C29.8527 3.35158 30.3684 4.59657 30.3684 5.89474V16.5" stroke="white" stroke-width="2" stroke-linecap="round" stroke-linejoin="round"/>
<path d="M1 22.2105L9.15789 14.0526C10.672 12.5956 12.5385 12.5956 14.0526 14.0526L20.5789 20.5789" stroke="white" stroke-width="2" stroke-linecap="round" stroke-linejoin="round"/>
<path d="M18.9474 18.9474L20.579 17.3158C21.6721 16.265 22.9448 15.9714 24.1391 16.4347M22.2105 27.1053H32M27.1053 22.2105V32" stroke="white" stroke-width="2" stroke-linecap="round" stroke-linejoin="round"/>
</svg>
