<svg width="330" height="273" viewBox="0 0 330 273" fill="none" xmlns="http://www.w3.org/2000/svg">
<path d="M199.894 233.363C200.212 232.8 199.894 232.05 199.237 231.975C194.325 231.281 189.3 232.5 185.287 235.463C184.931 235.744 184.819 236.269 185.062 236.681L190.706 246.469C191.062 247.088 191.962 247.088 192.337 246.469L199.894 233.363ZM213.937 243.619C212.1 238.988 208.462 235.256 203.906 233.306C203.475 233.119 202.969 233.306 202.725 233.719L197.081 243.488C196.725 244.088 197.175 244.875 197.906 244.875H213.056C213.712 244.875 214.181 244.219 213.937 243.619ZM214.069 246.75H202.444C201.731 246.75 201.262 247.537 201.637 248.156L209.625 262.012C209.944 262.575 210.75 262.669 211.162 262.162C214.425 258.075 215.812 252.731 215.006 247.556C214.975 247.331 214.863 247.124 214.69 246.976C214.517 246.827 214.296 246.747 214.069 246.75ZM181.837 238.856C180.228 240.896 179.056 243.246 178.395 245.759C177.734 248.272 177.597 250.894 177.994 253.462C178.05 253.912 178.462 254.25 178.931 254.25H190.556C191.269 254.25 191.737 253.462 191.362 252.844L183.375 239.006C183.037 238.444 182.231 238.35 181.837 238.856ZM179.062 257.381C180.9 262.012 184.537 265.744 189.094 267.694C189.525 267.881 190.031 267.694 190.275 267.281L195.919 257.512C196 257.37 196.042 257.209 196.042 257.046C196.041 256.882 195.998 256.721 195.917 256.579C195.836 256.437 195.719 256.319 195.577 256.236C195.436 256.153 195.276 256.108 195.112 256.106H179.944C179.287 256.125 178.819 256.781 179.062 257.381ZM193.744 269.044C198.656 269.737 203.681 268.519 207.694 265.556C208.069 265.275 208.181 264.731 207.937 264.319L202.294 254.531C202.21 254.39 202.09 254.273 201.947 254.191C201.804 254.11 201.643 254.067 201.478 254.067C201.314 254.067 201.152 254.11 201.009 254.191C200.866 254.273 200.747 254.39 200.662 254.531L193.087 267.637C192.769 268.2 193.106 268.95 193.744 269.044Z" fill="#C9FF2F"/>
<path d="M35 0L44.5671 26.903L70.3553 14.6447L58.097 40.4329L85 50L58.097 59.5671L70.3553 85.3553L44.5671 73.097L35 100L25.4329 73.097L-0.355339 85.3553L11.903 59.5671L-15 50L11.903 40.4329L-0.355339 14.6447L25.4329 26.903L35 0Z" fill="#C9FF2F"/>
<path d="M139.944 89.1C139.794 91.675 137.394 93.225 134.844 93.35C130.969 93.55 127.969 93.55 124.094 93.35C121.544 93.225 119.144 91.675 118.994 89.1C118.894 87.7 118.894 86.65 118.994 85.25C119.144 82.675 121.544 81.125 124.094 81C127.969 80.8 130.969 80.8 134.844 81C137.394 81.125 139.794 82.675 139.944 85.25C140.044 86.65 140.044 87.7 139.944 89.1ZM139.944 95.825V98.15C139.944 99.2 139.319 99.9 138.369 99.9H133.644V101.45C133.644 102.5 133.019 103.2 132.069 103.2H126.869C125.919 103.2 125.294 102.5 125.294 101.45V99.9H120.569C119.619 99.9 118.994 99.2 118.994 98.15V95.825C118.994 94.775 119.619 94.075 120.569 94.075H138.369C139.319 94.075 139.944 94.775 139.944 95.825ZM132.819 87.675V86.675C130.694 86.175 128.219 86.175 126.119 86.675V87.675C128.219 87.175 130.694 87.175 132.819 87.675ZM162.454 82.75V101.45C162.454 102.5 161.829 103.2 160.879 103.2H156.804C155.854 103.2 155.229 102.5 155.229 101.45V82.75C155.229 81.7 155.854 81 156.804 81H160.879C161.829 81 162.454 81.7 162.454 82.75ZM154.479 98.4V101.45C154.479 102.5 153.854 103.2 152.904 103.2H143.079C142.129 103.2 141.504 102.5 141.504 101.45V90.7C141.504 89.625 142.129 88.775 143.054 88.675C144.529 88.475 145.929 88.575 147.279 88.95V87.55C145.929 87.175 144.529 87.075 143.054 87.275C142.079 87.375 141.504 86.825 141.504 85.8V82.75C141.504 81.7 142.129 81 143.079 81H152.904C153.854 81 154.479 81.7 154.479 82.75V93.5C154.479 94.6 153.829 95.45 152.929 95.55C151.579 95.7 150.154 95.6 148.704 95.25V96.65C150.154 97 151.579 97.1 152.929 96.95C153.904 96.85 154.479 97.375 154.479 98.4ZM184.963 90.375V91.575C184.963 92.325 184.513 92.825 183.838 92.825H165.138C164.463 92.825 164.013 92.325 164.013 91.575V90.375C164.013 89.625 164.463 89.125 165.138 89.125H183.838C184.513 89.125 184.963 89.625 184.963 90.375ZM184.963 101.6V101.65C184.963 102.575 184.413 103.2 183.563 103.2H165.588C164.638 103.2 164.013 102.5 164.013 101.45V98.675C164.013 97.625 164.638 96.85 165.563 96.775C169.288 96.425 172.663 96.475 176.488 96.925V96.45C172.588 96 169.188 95.95 165.388 96.3C164.563 96.375 164.013 95.825 164.013 94.9C164.013 93.925 164.563 93.3 165.413 93.3H183.388C184.338 93.3 184.963 94 184.963 95.05V97.825C184.963 98.875 184.338 99.65 183.413 99.725C179.688 100.075 176.313 100.025 172.488 99.575V100.05C176.388 100.5 179.788 100.55 183.588 100.2C184.413 100.125 184.963 100.675 184.963 101.6ZM184.963 86.775V86.9C184.963 87.95 184.338 88.65 183.388 88.65H165.588C164.638 88.65 164.013 87.95 164.013 86.9V82.75C164.013 81.7 164.638 81 165.588 81H183.413C184.338 81 184.963 81.7 184.963 82.75C184.963 83.825 184.338 84.6 183.413 84.675C179.588 85.025 176.188 84.975 172.238 84.525V85.025C176.188 85.475 179.588 85.525 183.413 85.175C184.363 85.1 184.963 85.725 184.963 86.775ZM200.173 98.65V101.45C200.173 102.5 199.548 103.2 198.598 103.2H188.098C187.148 103.2 186.523 102.5 186.523 101.45V98.65C186.523 97.6 187.148 96.9 188.098 96.9H198.598C199.548 96.9 200.173 97.6 200.173 98.65ZM192.973 90.525H193.723C194.073 89.225 194.073 87.85 193.723 86.55H192.973C193.323 87.85 193.323 89.225 192.973 90.525ZM207.473 82.75V101.45C207.473 102.5 206.848 103.2 205.898 103.2H202.498C201.548 103.2 200.923 102.5 200.923 101.45V82.75C200.923 81.7 201.548 81 202.498 81H205.898C206.848 81 207.473 81.7 207.473 82.75ZM190.673 96.175C188.098 95.975 186.673 93.925 186.473 91.3C186.323 89.425 186.323 87.75 186.473 85.9C186.673 83.275 188.048 81.225 190.648 81C192.598 80.85 194.123 80.85 196.023 81C198.598 81.225 200.023 83.225 200.248 85.9C200.373 87.75 200.373 89.425 200.248 91.3C200.048 93.925 198.598 95.975 196.023 96.175C194.123 96.325 192.598 96.325 190.673 96.175ZM267.746 93.8V95.25C267.746 96.3 267.121 97 266.171 97H248.371C247.421 97 246.796 96.3 246.796 95.25V93.8C246.796 92.75 247.421 92.05 248.371 92.05H266.171C267.121 92.05 267.746 92.75 267.746 93.8ZM267.746 100.125V101.45C267.746 102.5 267.121 103.2 266.171 103.2H248.371C247.421 103.2 246.796 102.5 246.796 101.45V99.325C246.796 98.275 247.421 97.575 248.371 97.575H254.196C254.846 97.575 255.421 98.375 256.071 98.375H266.171C267.121 98.375 267.746 99.075 267.746 100.125ZM259.271 86.575V85.85C257.971 85.6 256.571 85.6 255.271 85.85V86.575C256.571 86.325 257.971 86.325 259.271 86.575ZM251.546 91.575C249.271 91.5 247.146 90.075 246.796 87.4C246.721 86.575 246.696 85.975 246.796 85.125C247.121 82.45 249.271 81.15 251.546 80.95C254.671 80.675 259.896 80.675 263.071 80.95C265.346 81.15 267.396 82.5 267.721 85.125C267.846 85.975 267.821 86.575 267.721 87.4C267.471 90.075 265.346 91.5 263.071 91.575C259.896 91.675 254.671 91.675 251.546 91.575ZM143.996 137.7C143.796 140.225 142.171 141.15 139.621 141.2C135.196 141.3 132.171 141.3 127.771 141.2C125.221 141.15 123.571 140.225 123.371 137.7C123.271 136.6 123.271 135.85 123.371 134.75C123.571 132.225 125.221 131.3 127.771 131.25C132.171 131.15 135.196 131.15 139.621 131.25C142.171 131.3 143.796 132.225 143.996 134.75C144.096 135.85 144.096 136.6 143.996 137.7ZM135.896 126.95V128.9C135.896 129.95 135.271 130.65 134.321 130.65H125.071C124.121 130.65 123.496 129.95 123.496 128.9V120.75C123.496 119.7 124.121 119 125.071 119H134.321C135.271 119 135.896 119.7 135.896 120.75V122.675C135.896 123.75 135.271 124.525 134.346 124.575C133.121 124.65 131.946 124.6 130.696 124.425V125.2C131.946 125.375 133.121 125.425 134.346 125.35C135.296 125.3 135.896 125.925 135.896 126.95ZM143.896 128.75V128.9C143.896 129.95 143.271 130.65 142.321 130.65H138.121C137.171 130.65 136.546 129.95 136.546 128.9V120.75C136.546 119.7 137.171 119 138.121 119H142.321C143.271 119 143.896 119.7 143.896 120.75V121.1C143.896 122.15 145.446 122.1 145.446 123.15V126.7C145.446 127.75 143.896 127.7 143.896 128.75ZM137.096 136.525V135.925C134.946 135.425 132.446 135.425 130.271 135.925V136.525C132.446 136.025 134.946 136.025 137.096 136.525ZM166.955 120.75V133.05C166.955 134.1 166.33 134.8 165.38 134.8H161.08C160.13 134.8 159.505 134.1 159.505 133.05V120.75C159.505 119.7 160.13 119 161.08 119H165.38C166.33 119 166.955 119.7 166.955 120.75ZM166.955 137.175V139.45C166.955 140.5 166.33 141.2 165.38 141.2H147.58C146.63 141.2 146.005 140.5 146.005 139.45V134.425C146.005 133.375 146.63 132.675 147.58 132.675H150.905C152.455 132.675 152.58 135.425 154.105 135.425H165.38C166.33 135.425 166.955 136.125 166.955 137.175ZM158.88 126.75V130.525C158.88 131.6 158.23 132.3 157.305 132.175C155.405 131.925 153.605 131.225 152.43 129.975C151.255 131.25 149.48 131.95 147.58 132.175C146.655 132.3 146.005 131.6 146.005 130.525V126.75C146.005 126.2 146.305 125.75 146.88 125.525C147.88 125.1 148.38 124.15 148.38 122.35V120.75C148.38 119.7 149.005 119 149.955 119H154.93C155.88 119 156.505 119.7 156.505 120.75V122.35C156.505 124.15 157.005 125.1 158.005 125.525C158.58 125.75 158.88 126.2 158.88 126.75ZM182.165 136.65V139.45C182.165 140.5 181.54 141.2 180.59 141.2H170.09C169.14 141.2 168.515 140.5 168.515 139.45V136.65C168.515 135.6 169.14 134.9 170.09 134.9H180.59C181.54 134.9 182.165 135.6 182.165 136.65ZM174.965 128.525H175.715C176.065 127.225 176.065 125.85 175.715 124.55H174.965C175.315 125.85 175.315 127.225 174.965 128.525ZM189.465 120.75V139.45C189.465 140.5 188.84 141.2 187.89 141.2H184.49C183.54 141.2 182.915 140.5 182.915 139.45V120.75C182.915 119.7 183.54 119 184.49 119H187.89C188.84 119 189.465 119.7 189.465 120.75ZM172.665 134.175C170.09 133.975 168.665 131.925 168.465 129.3C168.315 127.425 168.315 125.75 168.465 123.9C168.665 121.275 170.04 119.225 172.64 119C174.59 118.85 176.115 118.85 178.015 119C180.59 119.225 182.015 121.225 182.24 123.9C182.365 125.75 182.365 127.425 182.24 129.3C182.04 131.925 180.59 133.975 178.015 134.175C176.115 134.325 174.59 134.325 172.665 134.175ZM217.775 138.25V139.45C217.775 140.5 217.15 141.2 216.2 141.175C211.65 141.05 208.8 140.375 207.475 138.925C206.175 140.375 203.325 141.05 198.75 141.175C197.8 141.2 197.175 140.5 197.175 139.45V138.25C197.175 137.2 197.8 136.5 198.75 136.475C200.975 136.4 202.475 136.15 203.35 135.525H198.85C197.9 135.525 197.275 134.825 197.275 133.775V132.5C197.275 131.45 197.9 130.75 198.85 130.75H216.1C217.05 130.75 217.675 131.45 217.675 132.5V133.775C217.675 134.825 217.05 135.525 216.1 135.525H211.6C212.475 136.15 213.975 136.4 216.2 136.475C217.15 136.5 217.775 137.2 217.775 138.25ZM209.225 125.6V128.4C209.225 129.45 208.6 130.15 207.65 130.15H198.85C197.9 130.15 197.275 129.45 197.275 128.4V120.75C197.275 119.7 197.9 119 198.85 119H203.6C204.55 119 205.175 119.7 205.175 120.75V123.85H207.65C208.6 123.85 209.225 124.55 209.225 125.6ZM217.675 128.45C217.675 129.475 217.05 130.15 216.1 130.15H211.45C210.5 130.15 209.875 129.45 209.875 128.4V120.75C209.875 119.7 210.5 119 211.45 119H216.1C217.05 119 217.675 119.7 217.675 120.75C217.675 121.9 219.225 121.85 219.225 122.9V126.45C219.225 127.5 217.675 127.4 217.675 128.45ZM240.735 137.15V139.45C240.735 140.5 240.11 141.2 239.16 141.2H221.36C220.41 141.2 219.785 140.5 219.785 139.45V137.15C219.785 136.1 220.41 135.4 221.36 135.4H226.085V133.1H221.36C220.41 133.1 219.785 132.4 219.785 131.35V120.75C219.785 119.7 220.41 119 221.36 119H225.11C226.06 119 226.56 120.5 227.485 120.5H233.035C233.96 120.5 234.46 119 235.41 119H239.16C240.11 119 240.735 119.7 240.735 120.75V131.35C240.735 132.4 240.11 133.1 239.16 133.1H234.435V135.4H239.16C240.11 135.4 240.735 136.1 240.735 137.15ZM233.835 127.3V126.05C231.535 126.55 228.985 126.55 226.685 126.05V127.3C228.985 127.8 231.535 127.8 233.835 127.3ZM254.695 136.4V139.45C254.695 140.5 254.07 141.2 253.12 141.2H243.87C242.92 141.2 242.295 140.5 242.295 139.45V120.75C242.295 119.7 242.92 119 243.87 119H253.12C254.07 119 254.695 119.7 254.695 120.75V123.8C254.695 124.85 254.07 125.55 253.12 125.55H249.745V134.65H253.12C254.07 134.65 254.695 135.35 254.695 136.4ZM262.695 133.675V139.45C262.695 140.5 262.07 141.2 261.12 141.2H256.92C255.97 141.2 255.345 140.5 255.345 139.45V120.75C255.345 119.7 255.97 119 256.92 119H261.12C262.07 119 262.695 119.7 262.695 120.75V125.775C262.695 126.825 264.245 126.775 264.245 127.825V131.625C264.245 132.675 262.695 132.625 262.695 133.675Z" fill="white"/>
<path d="M244.153 93V102.03C244.153 103.5 243.278 104.48 241.948 104.48H217.798C216.468 104.48 215.593 103.5 215.593 102.03V93C215.593 91.53 216.468 90.55 217.798 90.55H241.948C243.278 90.55 244.153 91.53 244.153 93ZM234.388 75.85V87.26C234.388 88.73 233.513 89.71 232.183 89.71H217.798C216.468 89.71 215.593 88.73 215.593 87.26V75.85C215.593 74.38 216.468 73.4 217.798 73.4H222.628C223.713 73.4 224.448 74.205 224.448 75.465H225.498C225.498 74.205 226.233 73.4 227.353 73.4H232.183C233.513 73.4 234.388 74.38 234.388 75.85ZM244.153 87.05V87.26C244.153 88.73 243.278 89.71 241.948 89.71H237.643C236.313 89.71 235.438 88.73 235.438 87.26V75.85C235.438 74.38 236.313 73.4 237.643 73.4H241.948C243.278 73.4 244.153 74.38 244.153 75.85V76.34C244.153 77.81 246.323 77.74 246.323 79.21V84.18C246.323 85.65 244.153 85.58 244.153 87.05ZM234.633 97.935V97.095C231.623 97.795 228.123 97.795 225.078 97.095V97.935C228.123 98.635 231.623 98.635 234.633 97.935ZM224.448 83.83H225.498C225.778 83.13 225.778 81.835 225.498 81.135H224.448C224.728 81.835 224.728 83.13 224.448 83.83Z" fill="#C9FF2F"/>
<path d="M163.118 184.945V193.03C163.118 194.5 162.243 195.48 160.913 195.48H156.608C155.278 195.48 154.403 194.5 154.403 193.03V166.85C154.403 165.38 155.278 164.4 156.608 164.4H160.913C162.243 164.4 163.118 165.38 163.118 166.85V173.885C163.118 175.355 165.288 175.285 165.288 176.755V182.075C165.288 183.545 163.118 183.475 163.118 184.945ZM143.623 187.36H144.533C145.163 182.635 145.163 177.245 144.533 172.52H143.623C144.218 177.245 144.218 182.635 143.623 187.36ZM139.983 195.48C136.763 195.13 134.663 191.735 134.558 188.2C134.243 181.2 134.243 178.68 134.558 171.68C134.663 168.075 136.763 164.75 139.983 164.4C142.713 164.12 145.268 164.12 147.998 164.4C151.253 164.75 153.283 168.075 153.458 171.68C153.773 178.68 153.773 181.2 153.458 188.2C153.283 191.735 151.253 195.13 147.998 195.48C145.268 195.76 142.713 195.76 139.983 195.48ZM195.401 181.305V182.04C195.401 183.3 194.666 184.14 193.511 184.14H167.961C166.806 184.14 166.071 183.3 166.071 182.04V181.305C166.071 180.045 166.806 179.205 167.961 179.205H193.511C194.666 179.205 195.401 180.045 195.401 181.305ZM195.401 187.465V193.03C195.401 194.5 194.526 195.48 193.196 195.48H168.276C166.946 195.48 166.071 194.5 166.071 193.03V187.465C166.071 185.995 166.946 185.015 168.276 185.015H193.196C194.526 185.015 195.401 185.995 195.401 187.465ZM183.536 190.755V189.74C181.716 190.09 179.756 190.09 177.936 189.74V190.755C179.756 191.105 181.716 191.105 183.536 190.755ZM195.401 176.195V176.265C195.401 177.525 194.666 178.365 193.511 178.365H168.276C166.946 178.365 166.071 177.385 166.071 175.915V171.995C166.071 170.525 166.946 169.44 168.241 169.335C173.456 168.845 178.181 168.915 183.536 169.545V168.67C178.076 168.04 173.281 167.97 167.961 168.46C166.806 168.565 166.071 167.83 166.071 166.57C166.071 165.24 166.806 164.4 167.961 164.4H193.196C194.526 164.4 195.401 165.38 195.401 166.85V170.77C195.401 172.24 194.526 173.325 193.231 173.43C188.016 173.92 183.291 173.85 177.936 173.22V174.095C183.396 174.725 188.191 174.795 193.511 174.305C194.666 174.2 195.401 174.935 195.401 176.195ZM226.145 183.125V193.03C226.145 194.5 225.27 195.48 223.94 195.48H199.79C198.46 195.48 197.585 194.5 197.585 193.03V183.125C197.585 181.655 198.46 180.675 199.79 180.675H206.02C206.965 180.675 207.595 182.075 208.54 182.075H215.225C216.17 182.075 216.8 180.675 217.745 180.675H223.94C225.27 180.675 226.145 181.655 226.145 183.125ZM214.945 175.18V177.525C214.945 178.995 214.07 179.975 212.74 179.975H199.79C198.46 179.975 197.585 178.995 197.585 177.525V166.85C197.585 165.38 198.46 164.4 199.79 164.4H212.74C214.07 164.4 214.945 165.38 214.945 166.85V169.195C214.945 170.7 214.07 171.785 212.775 171.855C211.06 171.96 209.415 171.89 207.665 171.645V172.73C209.415 172.975 211.06 173.045 212.775 172.94C214.105 172.87 214.945 173.745 214.945 175.18ZM226.145 177.35V177.525C226.145 178.995 225.27 179.975 223.94 179.975H218.06C216.73 179.975 215.855 178.995 215.855 177.525V166.85C215.855 165.38 216.73 164.4 218.06 164.4H223.94C225.27 164.4 226.145 165.38 226.145 166.85C226.145 168.46 228.315 168.39 228.315 169.86V174.48C228.315 175.95 226.145 175.88 226.145 177.35ZM217.255 189.11V188.27C213.72 188.97 209.975 188.97 206.44 188.27V189.11C209.975 189.81 213.72 189.81 217.255 189.11ZM246.459 188.76V193.03C246.459 194.5 245.584 195.48 244.254 195.48H231.304C229.974 195.48 229.099 194.5 229.099 193.03V166.85C229.099 165.38 229.974 164.4 231.304 164.4H244.254C245.584 164.4 246.459 165.38 246.459 166.85V171.12C246.459 172.59 245.584 173.57 244.254 173.57H239.529V186.31H244.254C245.584 186.31 246.459 187.29 246.459 188.76ZM257.659 184.945V193.03C257.659 194.5 256.784 195.48 255.454 195.48H249.574C248.244 195.48 247.369 194.5 247.369 193.03V166.85C247.369 165.38 248.244 164.4 249.574 164.4H255.454C256.784 164.4 257.659 165.38 257.659 166.85V173.885C257.659 175.355 259.829 175.285 259.829 176.755V182.075C259.829 183.545 257.659 183.475 257.659 184.945Z" fill="#C9FF2F"/>
<path d="M306.5 208L310.857 218.09L320.313 212.488L317.907 223.212L328.85 224.238L320.6 231.5L328.85 238.762L317.907 239.788L320.313 250.512L310.857 244.91L306.5 255L302.143 244.91L292.687 250.512L295.093 239.788L284.15 238.762L292.4 231.5L284.15 224.238L295.093 223.212L292.687 212.488L302.143 218.09L306.5 208Z" fill="#C9FF2F" fill-opacity="0.7"/>
<circle cx="5" cy="5" r="5" transform="matrix(-1 0 0 1 87.9999 250.195)" fill="white"/>
<circle cx="230.5" cy="60.5" r="3.5" fill="white"/>
<path d="M79.5476 236.787C75.512 227.254 73.393 207.185 97.2013 203.175" stroke="white" stroke-width="3" stroke-linecap="round"/>
<path d="M307.313 56.0643C310.771 64.233 312.587 81.4291 292.187 84.8648" stroke="white" stroke-width="3" stroke-linecap="round"/>
</svg>
