<svg width="58" height="73" viewBox="0 0 58 73" fill="none" xmlns="http://www.w3.org/2000/svg">
<g filter="url(#filter0_d_26_387)">
<path d="M48 28.9742C48 39.4534 36.4417 55.5381 29 62.9697C21.4 55.38 10 39.4534 10 28.9742C10 18.495 18.5066 10 29 10C39.4934 10 48 18.495 48 28.9742Z" fill="#C9FF2F"/>
<path fill-rule="evenodd" clip-rule="evenodd" d="M29.7754 20.8525C29.7071 20.7065 29.5977 20.5829 29.4603 20.4963C29.3229 20.4097 29.1631 20.3636 29 20.3636C28.8369 20.3636 28.6771 20.4097 28.5397 20.4963C28.4023 20.5829 28.293 20.7065 28.2246 20.8525L25.7737 26.0853L19.966 26.7642C19.8039 26.7831 19.6507 26.8473 19.5246 26.9492C19.3984 27.0511 19.3045 27.1865 19.254 27.3394C19.2036 27.4922 19.1986 27.6561 19.2397 27.8117C19.2808 27.9672 19.3663 28.1079 19.486 28.2171L23.7815 32.1291L22.6414 37.7826C22.6097 37.9402 22.6245 38.1034 22.6841 38.253C22.7436 38.4026 22.8453 38.5322 22.9773 38.6266C23.1092 38.7211 23.2658 38.7763 23.4286 38.7858C23.5914 38.7953 23.7535 38.7587 23.8959 38.6803L29 35.8653L34.1041 38.6803C34.2466 38.759 34.4089 38.7959 34.5719 38.7865C34.735 38.7771 34.8919 38.7218 35.024 38.6272C35.1561 38.5327 35.2579 38.4027 35.3174 38.2529C35.3769 38.103 35.3915 37.9395 35.3595 37.7818L34.2194 32.13L38.514 28.2171C38.6337 28.1079 38.7192 27.9672 38.7603 27.8117C38.8014 27.6561 38.7965 27.4922 38.746 27.3394C38.6955 27.1865 38.6016 27.0511 38.4754 26.9492C38.3493 26.8473 38.1961 26.7831 38.0341 26.7642L32.2254 26.0845L29.7754 20.8525Z" fill="white"/>
</g>
<defs>
<filter id="filter0_d_26_387" x="0" y="0" width="58" height="72.9697" filterUnits="userSpaceOnUse" color-interpolation-filters="sRGB">
<feFlood flood-opacity="0" result="BackgroundImageFix"/>
<feColorMatrix in="SourceAlpha" type="matrix" values="0 0 0 0 0 0 0 0 0 0 0 0 0 0 0 0 0 0 127 0" result="hardAlpha"/>
<feOffset/>
<feGaussianBlur stdDeviation="5"/>
<feComposite in2="hardAlpha" operator="out"/>
<feColorMatrix type="matrix" values="0 0 0 0 0 0 0 0 0 0 0 0 0 0 0 0 0 0 0.15 0"/>
<feBlend mode="normal" in2="BackgroundImageFix" result="effect1_dropShadow_26_387"/>
<feBlend mode="normal" in="SourceGraphic" in2="effect1_dropShadow_26_387" result="shape"/>
</filter>
</defs>
</svg>
