<svg width="207" height="152" viewBox="0 0 207 152" fill="none" xmlns="http://www.w3.org/2000/svg">
<path d="M108.855 8.46083C109.357 7.57333 108.855 6.39 107.819 6.27167C100.068 5.17708 92.1399 7.1 85.8091 11.7742C85.247 12.2179 85.0695 13.0463 85.4541 13.6971L94.3587 29.1396C94.9208 30.1158 96.3408 30.1158 96.9324 29.1396L108.855 8.46083ZM131.012 24.6429C128.113 17.3358 122.374 11.4487 115.185 8.37208C114.505 8.07625 113.706 8.37208 113.322 9.02292L104.417 24.4358C103.855 25.3825 104.565 26.625 105.719 26.625H129.622C130.657 26.625 131.397 25.5896 131.012 24.6429ZM131.22 29.5833H112.878C111.754 29.5833 111.014 30.8258 111.606 31.8021L124.208 53.6642C124.711 54.5517 125.983 54.6996 126.634 53.9008C131.782 47.4517 133.971 39.0204 132.699 30.8554C132.65 30.4995 132.472 30.1737 132.2 29.9395C131.927 29.7052 131.579 29.5785 131.22 29.5833ZM80.3658 17.1287C77.8264 20.3476 75.9774 24.0551 74.934 28.02C73.8906 31.9849 73.6752 36.1223 74.3012 40.1742C74.3899 40.8842 75.0408 41.4167 75.7803 41.4167H94.122C95.2462 41.4167 95.9858 40.1742 95.3941 39.1979L82.7916 17.3654C82.2591 16.4779 80.987 16.33 80.3658 17.1287ZM75.9874 46.3571C78.8866 53.6642 84.6258 59.5512 91.8145 62.6279C92.4949 62.9237 93.2937 62.6279 93.6783 61.9771L102.583 46.5642C102.71 46.3397 102.777 46.0858 102.777 45.8276C102.776 45.5694 102.708 45.3157 102.58 45.0917C102.452 44.8677 102.267 44.6811 102.044 44.5502C101.822 44.4193 101.569 44.3487 101.311 44.3454H77.3778C76.3424 44.375 75.6028 45.4104 75.9874 46.3571ZM99.1512 64.7579C106.902 65.8525 114.83 63.9296 121.161 59.2554C121.753 58.8117 121.93 57.9537 121.546 57.3029L112.641 41.8604C112.509 41.6373 112.32 41.4524 112.095 41.324C111.869 41.1957 111.614 41.1282 111.354 41.1282C111.095 41.1282 110.84 41.1957 110.614 41.324C110.388 41.4524 110.2 41.6373 110.067 41.8604L98.1158 62.5392C97.6128 63.4267 98.1453 64.61 99.1512 64.7579Z" fill="#C9FF2F"/>
<path d="M12.9302 131.354V134.558H14.9058V136.533H12.9302V139.604H10.5396V131.354H12.9302ZM1.35889 139.023V132.051H3.76611V137.064C5.51758 137.015 7.41016 136.84 9.39404 136.434L9.67627 138.376C7.20264 138.891 4.81201 139.032 2.70361 139.023H1.35889ZM2.08936 144.635C5.03613 144.328 6.34766 143.157 6.60498 142.078H2.75342V140.202H13.0962V142.078H9.24463C9.51025 143.132 10.855 144.328 13.7935 144.668L12.8804 146.478C10.4399 146.179 8.80469 145.224 7.94971 143.996C7.08643 145.224 5.45117 146.137 3.00244 146.444L2.08936 144.635ZM29.4155 142.941V144.884H15.4868V142.941H21.2476V140.269H16.9146V132.3H19.3052V134.541H25.5308V132.3H27.9214V140.269H23.605V142.941H29.4155ZM19.3052 138.376H25.5308V136.417H19.3052V138.376ZM42.2651 131.354V136.898H44.4233V138.841H42.2651V146.627H39.8745V131.354H42.2651ZM30.7603 142.975V132.748H37.9155V134.674H33.1509V140.999C35.1929 140.982 36.9692 140.866 38.895 140.534L39.144 142.526C36.7949 142.925 34.6948 142.975 32.0718 142.975H30.7603ZM61.4565 131.354V140.053H59.0825V131.354H61.4565ZM49.437 138.924V131.951H51.7944V133.744H54.5835V131.951H56.9575V138.924H49.437ZM50.1509 144.784C53.1641 144.552 54.5503 143.556 54.8989 142.643H50.7651V140.85H55.0151V139.671H57.4224V140.85H61.689V142.643H57.5635C57.9121 143.522 59.3232 144.527 62.3032 144.751L61.4897 146.527C58.8833 146.312 57.1567 145.457 56.2354 144.344C55.3223 145.49 53.5708 146.328 50.9312 146.527L50.1509 144.784ZM51.7944 137.064H54.5835V135.554H51.7944V137.064ZM77.4937 137.031V138.974H75.4517V146.544H73.061V131.354H75.4517V137.031H77.4937ZM63.7974 142.875V132.798H66.188V140.908C68.0474 140.866 70.0645 140.684 72.1646 140.269L72.4136 142.244C69.8818 142.759 67.3833 142.883 65.1587 142.875H63.7974ZM90.4429 135.371V137.23H79.7349V131.901H82.1089V135.371H90.4429ZM78.0415 140.584V138.708H91.9702V140.584H78.0415ZM79.5854 146.262V141.729H81.9761V144.353H90.5425V146.262H79.5854ZM156.069 132.781C156.061 137.554 154.89 141.447 149.362 144.353L148.067 142.56C150.35 141.339 151.786 140.028 152.632 138.459L148.465 138.841L148.167 136.815L153.379 136.533C153.521 135.952 153.62 135.33 153.678 134.674H148.997V132.781H156.069ZM156.052 139.073V137.131H158.758V131.354H161.132V146.594H158.758V139.073H156.052ZM176.837 139.754V141.646H173.816V146.61H171.425V141.646H168.437V146.61H166.03V141.646H162.909V139.754H176.837ZM164.502 138.26V132.051H175.227V138.26H164.502ZM166.843 136.351H172.836V133.943H166.843V136.351ZM190.5 131.354V146.594H188.126V131.354H190.5ZM178.381 142.875V132.798H180.755V140.858C182.723 140.808 184.864 140.617 186.998 140.202L187.296 142.178C184.632 142.726 182.075 142.883 179.759 142.875H178.381ZM200.943 132.582V134.524H195.464V136.815H200.279V138.691H195.464V141.298C197.647 141.273 199.474 141.182 201.524 140.883L201.756 142.792C199.357 143.132 197.125 143.19 194.435 143.207H193.09V132.582H200.943ZM202.752 146.594V131.354H205.176V146.594H202.752Z" fill="white"/>
<path d="M108.688 140.7V146.428H98.6274V140.7H108.688ZM96.9507 139.405V132.167H99.3081V133.96H102.014V132.167H104.405V139.405H96.9507ZM99.3081 137.479H102.014V135.786H99.3081V137.479ZM100.985 144.519H106.331V142.576H100.985V144.519ZM106.297 140.036V131.354H108.688V134.657H110.664V136.633H108.688V140.036H106.297ZM120.807 134.591C120.799 137.347 121.762 140.094 124.293 141.314L122.866 143.207C121.272 142.435 120.234 141.041 119.62 139.314C118.973 141.173 117.852 142.676 116.142 143.506L114.681 141.563C117.371 140.352 118.408 137.446 118.417 134.591V132.482H120.807V134.591ZM124.742 146.594V131.354H127.132V137.131H129.291V139.14H127.132V146.594H124.742ZM135.815 134.292C135.815 136.035 136.794 137.895 139.368 138.658L138.139 140.518C136.471 140.003 135.325 138.974 134.645 137.67C133.947 139.09 132.752 140.235 130.984 140.8L129.755 138.924C132.362 138.119 133.383 136.143 133.391 134.292H130.386V132.383H138.737V134.292H135.815ZM132.212 146.345V141.348H134.636V144.436H142.92V146.345H132.212ZM140.148 142.327V131.37H142.539V142.327H140.148Z" fill="#C9FF2F"/>
<path d="M79.1074 110.03C79.0608 110.777 78.8158 111.372 78.3724 111.815C77.9524 112.258 77.4158 112.48 76.7624 112.48H68.9574C68.2808 112.48 67.7208 112.258 67.2774 111.815C66.8574 111.372 66.6241 110.777 66.5774 110.03L65.5274 95.715H65.2824L64.2324 110.03C64.1858 110.777 63.9408 111.372 63.4974 111.815C63.0774 112.258 62.5291 112.48 61.8524 112.48H54.0474C53.3941 112.48 52.8458 112.258 52.4024 111.815C51.9824 111.372 51.7491 110.777 51.7024 110.03L49.8124 83.85C49.7658 83.1033 49.9291 82.5083 50.3024 82.065C50.6758 81.6217 51.2008 81.4 51.8774 81.4H56.0074C56.6841 81.4 57.2324 81.6217 57.6524 82.065C58.0724 82.5083 58.3058 83.1033 58.3524 83.85L59.4724 102.855H59.7174L60.9424 83.85C60.9891 83.1033 61.2224 82.5083 61.6424 82.065C62.0624 81.6217 62.6108 81.4 63.2874 81.4H67.5224C68.1991 81.4 68.7474 81.6217 69.1674 82.065C69.5874 82.5083 69.8208 83.1033 69.8674 83.85L71.0574 102.855H71.3374L72.4574 83.85C72.5041 83.1033 72.7374 82.5083 73.1574 82.065C73.5774 81.6217 74.1258 81.4 74.8024 81.4H78.9324C79.6091 81.4 80.1341 81.6217 80.5074 82.065C80.8808 82.5083 81.0441 83.1033 80.9974 83.85L79.1074 110.03ZM105.422 110.03C105.422 110.777 105.212 111.372 104.792 111.815C104.396 112.258 103.871 112.48 103.217 112.48H99.5072C98.8539 112.48 98.2472 112.27 97.6872 111.85C97.1272 111.43 96.7189 110.882 96.4622 110.205L91.8772 97.675H91.5972V110.03C91.5972 110.777 91.3989 111.372 91.0022 111.815C90.6056 112.258 90.0689 112.48 89.3922 112.48H84.9472C84.2706 112.48 83.7339 112.258 83.3372 111.815C82.9406 111.372 82.7422 110.777 82.7422 110.03V83.85C82.7422 83.1033 82.9406 82.5083 83.3372 82.065C83.7339 81.6217 84.2706 81.4 84.9472 81.4H88.6222C89.2989 81.4 89.9056 81.61 90.4422 82.03C91.0022 82.45 91.4106 82.9983 91.6672 83.675L96.2872 96.205H96.5322V83.85C96.5322 83.1033 96.7306 82.5083 97.1272 82.065C97.5239 81.6217 98.0606 81.4 98.7372 81.4H103.217C103.871 81.4 104.396 81.6217 104.792 82.065C105.212 82.5083 105.422 83.1033 105.422 83.85V110.03ZM110.001 112.48C109.324 112.48 108.788 112.258 108.391 111.815C107.994 111.372 107.796 110.777 107.796 110.03V83.85C107.796 83.1033 107.994 82.5083 108.391 82.065C108.788 81.6217 109.324 81.4 110.001 81.4H123.161C124.234 81.4 125.214 81.5633 126.101 81.89C127.011 82.2167 127.781 82.695 128.411 83.325C129.064 83.955 129.566 84.7367 129.916 85.67C130.289 86.6033 130.476 87.6767 130.476 88.89V104.99C130.476 106.227 130.289 107.312 129.916 108.245C129.566 109.178 129.064 109.96 128.411 110.59C127.781 111.22 127.011 111.687 126.101 111.99C125.214 112.317 124.234 112.48 123.161 112.48H110.001ZM119.451 103.975C119.894 103.975 120.221 103.835 120.431 103.555C120.664 103.252 120.828 102.832 120.921 102.295C121.061 101.502 121.166 100.65 121.236 99.74C121.306 98.8067 121.341 97.8733 121.341 96.94C121.341 96.0067 121.306 95.085 121.236 94.175C121.166 93.265 121.061 92.4017 120.921 91.585C120.804 91.0483 120.641 90.64 120.431 90.36C120.221 90.0567 119.894 89.905 119.451 89.905H117.316C117.736 92.2617 117.934 94.6067 117.911 96.94C117.911 99.2733 117.713 101.618 117.316 103.975H119.451ZM134.918 112.48C134.241 112.48 133.705 112.258 133.308 111.815C132.911 111.372 132.713 110.777 132.713 110.03V83.85C132.713 83.1033 132.911 82.5083 133.308 82.065C133.705 81.6217 134.241 81.4 134.918 81.4H149.863C151.823 81.4 153.293 81.9367 154.273 83.01C155.253 84.06 155.743 85.6 155.743 87.63V91.305C155.743 92.9383 155.451 94.1867 154.868 95.05C154.308 95.89 153.491 96.4617 152.418 96.765C153.748 97.045 154.681 97.6633 155.218 98.62C155.778 99.5533 156.058 100.837 156.058 102.47V106.25C156.058 108.28 155.568 109.82 154.588 110.87C153.608 111.943 152.138 112.48 150.178 112.48H134.918ZM144.963 92.95C145.406 92.95 145.71 92.8917 145.873 92.775C146.036 92.6583 146.141 92.4833 146.188 92.25C146.258 91.8533 146.281 91.4567 146.258 91.06C146.258 90.64 146.235 90.255 146.188 89.905C146.141 89.7183 146.036 89.555 145.873 89.415C145.71 89.275 145.406 89.205 144.963 89.205H142.268C142.338 89.4383 142.385 89.7183 142.408 90.045C142.431 90.3717 142.431 90.7217 142.408 91.095C142.408 91.445 142.396 91.7833 142.373 92.11C142.35 92.4367 142.315 92.7167 142.268 92.95H144.963ZM145.243 104.64C145.686 104.64 145.978 104.593 146.118 104.5C146.281 104.407 146.386 104.22 146.433 103.94C146.48 103.683 146.503 103.345 146.503 102.925C146.526 102.482 146.515 102.155 146.468 101.945C146.421 101.572 146.316 101.303 146.153 101.14C145.99 100.977 145.686 100.895 145.243 100.895H142.268C142.338 101.128 142.385 101.408 142.408 101.735C142.431 102.062 142.431 102.412 142.408 102.785C142.408 103.135 142.396 103.473 142.373 103.8C142.35 104.127 142.315 104.407 142.268 104.64H145.243Z" fill="#C9FF2F"/>
<path d="M158 65L159.7 70.7692L164.466 67.1008L162.45 72.7672L168.462 72.6008L163.5 76L168.462 79.3992L162.45 79.2328L164.466 84.8992L159.7 81.2308L158 87L156.3 81.2308L151.534 84.8992L153.55 79.2328L147.538 79.3992L152.5 76L147.538 72.6008L153.55 72.7672L151.534 67.1008L156.3 70.7692L158 65Z" fill="#C9FF2F"/>
</svg>
