<svg width="17" height="17" viewBox="0 0 17 17" fill="none" xmlns="http://www.w3.org/2000/svg">
<path d="M8.49915 0C13.1941 0 17 3.80592 17 8.50085C17 13.1949 13.1941 17 8.49915 17C3.80422 17.0008 1.42353e-07 13.1949 1.42353e-07 8.50085C-0.000849773 3.80592 3.80422 0 8.49915 0ZM8.49915 1.27487C7.54368 1.26451 6.59565 1.44375 5.70991 1.80222C4.82418 2.16069 4.01834 2.69127 3.33903 3.36326C2.65972 4.03524 2.12043 4.83528 1.75237 5.71707C1.38432 6.59887 1.19481 7.5449 1.19481 8.50042C1.19481 9.45595 1.38432 10.402 1.75237 11.2838C2.12043 12.1656 2.65972 12.9656 3.33903 13.6376C4.01834 14.3096 4.82418 14.8402 5.70991 15.1986C6.59565 15.5571 7.54368 15.7363 8.49915 15.726C10.4019 15.7053 12.2197 14.935 13.558 13.5822C14.8962 12.2294 15.6468 10.4033 15.6468 8.50042C15.6468 6.59755 14.8962 4.77148 13.558 3.41867C12.2197 2.06586 10.4019 1.29551 8.49915 1.27487ZM8.49575 7.22428C8.64993 7.22408 8.79896 7.27977 8.91523 7.38103C9.03149 7.4823 9.10712 7.62227 9.12809 7.77502L9.13404 7.86171L9.13744 12.5379C9.13909 12.7006 9.0785 12.8577 8.96807 12.9772C8.85765 13.0966 8.70574 13.1693 8.54345 13.1804C8.38117 13.1915 8.22079 13.1401 8.09515 13.0368C7.96951 12.9334 7.88813 12.786 7.86766 12.6246L7.86256 12.5388L7.85916 7.86256C7.85916 7.6935 7.92632 7.53137 8.04587 7.41183C8.16541 7.29229 8.32754 7.22513 8.4966 7.22513L8.49575 7.22428ZM8.5 4.25212C8.6137 4.24853 8.72697 4.26781 8.83308 4.30884C8.93918 4.34987 9.03596 4.4118 9.11767 4.49096C9.19937 4.57012 9.26433 4.66489 9.3087 4.76965C9.35306 4.8744 9.37592 4.987 9.37592 5.10076C9.37592 5.21453 9.35306 5.32713 9.3087 5.43188C9.26433 5.53664 9.19937 5.63141 9.11767 5.71057C9.03596 5.78973 8.93918 5.85166 8.83308 5.89269C8.72697 5.93372 8.6137 5.953 8.5 5.9494C8.27958 5.94243 8.07051 5.84996 7.91706 5.69157C7.7636 5.53318 7.67779 5.3213 7.67779 5.10076C7.67779 4.88023 7.7636 4.66835 7.91706 4.50996C8.07051 4.35157 8.27958 4.2591 8.5 4.25212Z" fill="white"/>
</svg>
